<mxfile host="app.diagrams.net" modified="2023-09-06T12:20:47.442Z" agent="Mozilla/5.0 (Macintosh; Intel Mac OS X 10_2) AppleWebKit/537.36 (KHTML, like Gecko) Chrome/116.0.5789.210 Safari/537.36 OPR/98.0.3876.89" version="21.7.2" etag="fPPrmzcIxtx2xK3lDNJ7" type="github">
  <diagram name="Page-1" id="RtFpLGx4DeEpdptoHXDS">
    <mxGraphModel>
      <root>
        <mxCell id="0" />
        <mxCell id="1" parent="0" />
      </root>
    </mxGraphModel>
  </diagram>
</mxfile>
